<svg width="64" height="65" viewBox="0 0 64 65" fill="none" xmlns="http://www.w3.org/2000/svg">
<g id="groups_black_24dp 1" clip-path="url(#clip0_53_896)">
<g id="Group">
<path id="Vector" d="M32 34.5C36.3467 34.5 40.1867 35.54 43.3067 36.9C46.1867 38.18 48 41.06 48 44.18V48.5H16V44.2067C16 41.06 17.8133 38.18 20.6933 36.9267C23.8133 35.54 27.6533 34.5 32 34.5ZM10.6667 35.1667C13.6 35.1667 16 32.7667 16 29.8333C16 26.9 13.6 24.5 10.6667 24.5C7.73333 24.5 5.33333 26.9 5.33333 29.8333C5.33333 32.7667 7.73333 35.1667 10.6667 35.1667ZM13.68 38.1C12.6933 37.94 11.7067 37.8333 10.6667 37.8333C8.02667 37.8333 5.52 38.3933 3.25333 39.38C1.28 40.2333 0 42.1533 0 44.3133V48.5H12V44.2067C12 41.9933 12.6133 39.9133 13.68 38.1ZM53.3333 35.1667C56.2667 35.1667 58.6667 32.7667 58.6667 29.8333C58.6667 26.9 56.2667 24.5 53.3333 24.5C50.4 24.5 48 26.9 48 29.8333C48 32.7667 50.4 35.1667 53.3333 35.1667ZM64 44.3133C64 42.1533 62.72 40.2333 60.7467 39.38C58.48 38.3933 55.9733 37.8333 53.3333 37.8333C52.2933 37.8333 51.3067 37.94 50.32 38.1C51.3867 39.9133 52 41.9933 52 44.2067V48.5H64V44.3133ZM32 16.5C36.4267 16.5 40 20.0733 40 24.5C40 28.9267 36.4267 32.5 32 32.5C27.5733 32.5 24 28.9267 24 24.5C24 20.0733 27.5733 16.5 32 16.5Z" fill="#17223B"/>
</g>
</g>
<defs>
<clipPath id="clip0_53_896">
<rect width="64" height="64" fill="white" transform="translate(0 0.5)"/>
</clipPath>
</defs>
</svg>
