<svg width="64" height="35" viewBox="0 0 64 35" fill="none" xmlns="http://www.w3.org/2000/svg">
<g id="Group">
<g id="Group_2">
<g id="Group_3">
<path id="Vector" d="M64 5.86359C64 9.06359 61.3818 11.6818 58.1818 11.6818C57.6582 11.6818 57.1636 11.6236 56.6982 11.4781L46.3418 21.8054C46.4873 22.2709 46.5455 22.7945 46.5455 23.3181C46.5455 26.5181 43.9273 29.1363 40.7273 29.1363C37.5273 29.1363 34.9091 26.5181 34.9091 23.3181C34.9091 22.7945 34.9673 22.2709 35.1127 21.8054L27.6945 14.3872C27.2291 14.5327 26.7055 14.5909 26.1818 14.5909C25.6582 14.5909 25.1345 14.5327 24.6691 14.3872L11.4327 27.6527C11.5782 28.1181 11.6364 28.6127 11.6364 29.1363C11.6364 32.3363 9.01818 34.9545 5.81818 34.9545C2.61818 34.9545 0 32.3363 0 29.1363C0 25.9363 2.61818 23.3181 5.81818 23.3181C6.34182 23.3181 6.83636 23.3763 7.30182 23.5218L20.5673 10.2854C20.4218 9.81996 20.3636 9.29632 20.3636 8.77268C20.3636 5.57268 22.9818 2.9545 26.1818 2.9545C29.3818 2.9545 32 5.57268 32 8.77268C32 9.29632 31.9418 9.81996 31.7964 10.2854L39.2145 17.7036C39.68 17.5581 40.2036 17.5 40.7273 17.5C41.2509 17.5 41.7745 17.5581 42.24 17.7036L52.5673 7.34723C52.4218 6.88177 52.3636 6.38723 52.3636 5.86359C52.3636 2.66359 54.9818 0.0454102 58.1818 0.0454102C61.3818 0.0454102 64 2.66359 64 5.86359Z" fill="#17223B"/>
</g>
</g>
</g>
</svg>
