<svg width="72" height="73" viewBox="0 0 72 73" fill="none" xmlns="http://www.w3.org/2000/svg">
<g id="settings_black_24dp 1" clip-path="url(#clip0_53_876)">
<g id="Group">
<path id="Vector" d="M57.4198 39.3202C57.5398 38.4202 57.5998 37.4902 57.5998 36.5002C57.5998 35.5402 57.5398 34.5802 57.3898 33.6802L63.4798 28.9402C64.0198 28.5202 64.1698 27.7102 63.8398 27.1102L58.0798 17.1502C57.7198 16.4902 56.9698 16.2802 56.3098 16.4902L49.1398 19.3702C47.6398 18.2302 46.0498 17.2702 44.2798 16.5502L43.1998 8.93019C43.0798 8.21019 42.4798 7.7002 41.7598 7.7002H30.2398C29.5198 7.7002 28.9498 8.21019 28.8298 8.93019L27.7498 16.5502C25.9798 17.2702 24.3598 18.2602 22.8898 19.3702L15.7198 16.4902C15.0598 16.2502 14.3098 16.4902 13.9498 17.1502L8.21984 27.1102C7.85984 27.7402 7.97984 28.5202 8.57984 28.9402L14.6698 33.6802C14.5198 34.5802 14.3998 35.5702 14.3998 36.5002C14.3998 37.4302 14.4598 38.4202 14.6098 39.3202L8.51984 44.0602C7.97984 44.4802 7.82984 45.2902 8.15984 45.8902L13.9198 55.8502C14.2798 56.5102 15.0298 56.7202 15.6898 56.5102L22.8598 53.6302C24.3598 54.7702 25.9498 55.7302 27.7198 56.4502L28.7998 64.0702C28.9498 64.7902 29.5198 65.3002 30.2398 65.3002H41.7598C42.4798 65.3002 43.0798 64.7902 43.1698 64.0702L44.2498 56.4502C46.0198 55.7302 47.6398 54.7702 49.1098 53.6302L56.2798 56.5102C56.9398 56.7502 57.6898 56.5102 58.0498 55.8502L63.8098 45.8902C64.1698 45.2302 64.0198 44.4802 63.4498 44.0602L57.4198 39.3202ZM35.9998 47.3002C30.0598 47.3002 25.1998 42.4402 25.1998 36.5002C25.1998 30.5602 30.0598 25.7002 35.9998 25.7002C41.9398 25.7002 46.7998 30.5602 46.7998 36.5002C46.7998 42.4402 41.9398 47.3002 35.9998 47.3002Z" fill="#17223B"/>
</g>
</g>
<defs>
<clipPath id="clip0_53_876">
<rect width="72" height="72" fill="white" transform="translate(0 0.5)"/>
</clipPath>
</defs>
</svg>
