<svg width="24" height="22" viewBox="0 0 24 22" fill="none" xmlns="http://www.w3.org/2000/svg">
<path id="Vector" d="M19.8333 14.9999V12.9999H23C23.2889 12.9999 23.5278 13.0944 23.7167 13.2833C23.9056 13.4721 24 13.711 24 13.9999C24 14.2666 23.9056 14.4999 23.7167 14.6999C23.5278 14.8999 23.2889 14.9999 23 14.9999H19.8333ZM19.8333 20.3333V18.3333H23C23.2889 18.3333 23.5278 18.4277 23.7167 18.6166C23.9056 18.8055 24 19.0444 24 19.3333C24 19.5999 23.9056 19.8333 23.7167 20.0333C23.5278 20.2333 23.2889 20.3333 23 20.3333H19.8333ZM14.6667 21.6666C14.0222 21.6666 13.4722 21.4055 13.0167 20.8833C12.5611 20.361 12.3333 19.7333 12.3333 18.9999H9.16667V14.3333H12.3333C12.3333 13.5999 12.5611 12.9721 13.0167 12.4499C13.4722 11.9277 14.0222 11.6666 14.6667 11.6666H18.8333V21.6666H14.6667ZM5.16667 17.6666C3.67778 17.6666 2.44444 17.1833 1.46667 16.2166C0.488889 15.2499 0 14.011 0 12.4999C0 10.9888 0.488889 9.74992 1.46667 8.78325C2.44444 7.81659 3.67778 7.33325 5.16667 7.33325H7.33333C8.06667 7.33325 8.66667 7.09992 9.13333 6.63325C9.6 6.16658 9.83333 5.56659 9.83333 4.83325C9.83333 4.09992 9.6 3.49992 9.13333 3.03325C8.66667 2.56659 8.06667 2.33325 7.33333 2.33325H2.33333C2.06667 2.33325 1.83333 2.23325 1.63333 2.03325C1.43333 1.83325 1.33333 1.59992 1.33333 1.33325C1.33333 1.04436 1.43333 0.805474 1.63333 0.616585C1.83333 0.427696 2.06667 0.333252 2.33333 0.333252H7.33333C8.62222 0.333252 9.69444 0.76103 10.55 1.61659C11.4056 2.47214 11.8333 3.54436 11.8333 4.83325C11.8333 6.12214 11.4056 7.19436 10.55 8.04992C9.69444 8.90547 8.62222 9.33325 7.33333 9.33325H5.16667C4.23333 9.33325 3.47222 9.62214 2.88333 10.1999C2.29444 10.7777 2 11.5444 2 12.4999C2 13.4555 2.29444 14.2221 2.88333 14.7999C3.47222 15.3777 4.23333 15.6666 5.16667 15.6666H8.16667V17.6666H5.16667Z" fill="white"/>
</svg>
