<svg width="24" height="20" viewBox="0 0 24 20" fill="none" xmlns="http://www.w3.org/2000/svg">
<path id="Vector" d="M0 19.8743V17.3509C0 16.7292 0.146286 16.2126 0.438857 15.8012C0.731429 15.3897 1.14286 15.056 1.67314 14.8C2.66057 14.3246 3.71657 13.9314 4.84114 13.6206C5.96571 13.3097 7.24114 13.1543 8.66743 13.1543C10.0937 13.1543 11.3691 13.3097 12.4937 13.6206C13.6183 13.9314 14.6743 14.3246 15.6617 14.8C16.192 15.056 16.6034 15.3897 16.896 15.8012C17.1886 16.2126 17.3349 16.7292 17.3349 17.3509V19.8743H0ZM1.64571 18.2286H15.6891V17.3509C15.6891 17.0766 15.6114 16.8526 15.456 16.6789C15.3006 16.5052 15.1131 16.3726 14.8937 16.2812C14.1074 15.9337 13.2297 15.6 12.2606 15.28C11.2914 14.96 10.0937 14.8 8.66743 14.8C7.24114 14.8 6.04343 14.96 5.07429 15.28C4.10514 15.6 3.22743 15.9337 2.44114 16.2812C2.22171 16.3726 2.03429 16.5052 1.87886 16.6789C1.72343 16.8526 1.64571 17.0766 1.64571 17.3509V18.2286ZM8.66743 11.5086C7.46057 11.5086 6.47314 11.1154 5.70514 10.3292C4.93714 9.54288 4.55314 8.56459 4.55314 7.3943H4.27886C4.13257 7.3943 4.00457 7.33945 3.89486 7.22973C3.78514 7.12002 3.73029 6.99202 3.73029 6.84573C3.73029 6.69945 3.78514 6.57145 3.89486 6.46173C4.00457 6.35202 4.13257 6.29716 4.27886 6.29716H4.55314C4.55314 5.56573 4.736 4.90745 5.10171 4.3223C5.46743 3.73716 5.94286 3.26173 6.528 2.89602V3.96573C6.528 4.07545 6.56914 4.17145 6.65143 4.25373C6.73371 4.33602 6.82971 4.37716 6.93943 4.37716C7.06743 4.37716 7.168 4.33602 7.24114 4.25373C7.31429 4.17145 7.35086 4.07545 7.35086 3.96573V2.53945C7.49714 2.50288 7.69829 2.47088 7.95429 2.44345C8.21029 2.41602 8.45714 2.4023 8.69486 2.4023C8.93257 2.4023 9.17943 2.41602 9.43543 2.44345C9.69143 2.47088 9.89257 2.50288 10.0389 2.53945V3.96573C10.0389 4.07545 10.0754 4.17145 10.1486 4.25373C10.2217 4.33602 10.3223 4.37716 10.4503 4.37716C10.56 4.37716 10.656 4.33602 10.7383 4.25373C10.8206 4.17145 10.8617 4.07545 10.8617 3.96573V2.89602C11.4469 3.26173 11.9131 3.73716 12.2606 4.3223C12.608 4.90745 12.7817 5.56573 12.7817 6.29716H13.056C13.2023 6.29716 13.3303 6.35202 13.44 6.46173C13.5497 6.57145 13.6046 6.69945 13.6046 6.84573C13.6046 6.99202 13.5497 7.12002 13.44 7.22973C13.3303 7.33945 13.2023 7.3943 13.056 7.3943H12.7817C12.7817 8.56459 12.3977 9.54288 11.6297 10.3292C10.8617 11.1154 9.87429 11.5086 8.66743 11.5086ZM8.66743 9.86287C9.43543 9.86287 10.0389 9.6343 10.4777 9.17716C10.9166 8.72002 11.136 8.12573 11.136 7.3943H6.19886C6.19886 8.12573 6.41829 8.72002 6.85714 9.17716C7.296 9.6343 7.89943 9.86287 8.66743 9.86287ZM16.9509 13.264L16.896 12.4686C16.768 12.3954 16.6354 12.3132 16.4983 12.2217C16.3611 12.1303 16.2377 12.0389 16.128 11.9474L15.4149 12.3314L14.8114 11.4537L15.5246 10.9326C15.488 10.8594 15.4697 10.7909 15.4697 10.7269V10.3154C15.4697 10.2514 15.488 10.1829 15.5246 10.1097L14.8114 9.58859L15.4149 8.71088L16.128 9.09488L16.512 8.82059C16.64 8.72916 16.768 8.64688 16.896 8.57373L16.9509 7.7783H18.048L18.1029 8.57373C18.2309 8.64688 18.3589 8.72916 18.4869 8.82059L18.8709 9.09488L19.584 8.71088L20.1874 9.58859L19.4743 10.1097C19.5109 10.1829 19.5291 10.2514 19.5291 10.3154V10.7269C19.5291 10.7909 19.5109 10.8594 19.4743 10.9326L20.1874 11.4537L19.584 12.3314L18.8709 11.9474C18.7611 12.0389 18.6377 12.1303 18.5006 12.2217C18.3634 12.3132 18.2309 12.3954 18.1029 12.4686L18.048 13.264H16.9509ZM17.4994 11.5634C17.792 11.5634 18.0389 11.4629 18.24 11.2617C18.4411 11.0606 18.5417 10.8137 18.5417 10.5212C18.5417 10.2286 18.4411 9.98173 18.24 9.78059C18.0389 9.57945 17.792 9.47888 17.4994 9.47888C17.2069 9.47888 16.96 9.57945 16.7589 9.78059C16.5577 9.98173 16.4571 10.2286 16.4571 10.5212C16.4571 10.8137 16.5577 11.0606 16.7589 11.2617C16.96 11.4629 17.2069 11.5634 17.4994 11.5634ZM19.9131 7.31202L19.6663 6.35202C19.4834 6.27888 19.296 6.1783 19.104 6.0503C18.912 5.9223 18.752 5.78516 18.624 5.63888L17.4171 6.07773L16.8686 5.11773L17.8286 4.34973C17.792 4.2583 17.76 4.15773 17.7326 4.04802C17.7051 3.9383 17.6914 3.82859 17.6914 3.71888C17.6914 3.60916 17.7051 3.49945 17.7326 3.38973C17.76 3.28002 17.792 3.17945 17.8286 3.08802L16.8686 2.32002L17.4171 1.36002L18.624 1.79888C18.752 1.65259 18.912 1.51088 19.104 1.37373C19.296 1.23659 19.4834 1.14059 19.6663 1.08573L19.9131 0.125732H20.9554L21.2023 1.08573C21.3851 1.14059 21.5726 1.23659 21.7646 1.37373C21.9566 1.51088 22.1166 1.65259 22.2446 1.79888L23.4514 1.36002L24 2.32002L23.04 3.08802C23.0766 3.17945 23.1086 3.28002 23.136 3.38973C23.1634 3.49945 23.1771 3.60916 23.1771 3.71888C23.1771 3.82859 23.1634 3.9383 23.136 4.04802C23.1086 4.15773 23.0766 4.2583 23.04 4.34973L24 5.11773L23.4514 6.07773L22.2446 5.63888C22.1166 5.78516 21.9566 5.9223 21.7646 6.0503C21.5726 6.1783 21.3851 6.27888 21.2023 6.35202L20.9554 7.31202H19.9131ZM20.4343 5.30973C20.8914 5.30973 21.2709 5.15887 21.5726 4.85716C21.8743 4.55545 22.0251 4.17602 22.0251 3.71888C22.0251 3.26173 21.8743 2.8823 21.5726 2.58059C21.2709 2.27888 20.8914 2.12802 20.4343 2.12802C19.9771 2.12802 19.5977 2.27888 19.296 2.58059C18.9943 2.8823 18.8434 3.26173 18.8434 3.71888C18.8434 4.17602 18.9943 4.55545 19.296 4.85716C19.5977 5.15887 19.9771 5.30973 20.4343 5.30973Z" fill="white"/>
</svg>
