<svg width="24" height="26" viewBox="0 0 24 26" fill="none" xmlns="http://www.w3.org/2000/svg">
<path id="Vector" d="M1.56029 25.2538V22.1332H5.7764L2.25745 10.1157C1.54923 9.78369 0.995932 9.33552 0.597559 8.77116C0.199186 8.20679 0 7.45984 0 6.53031C0 5.49011 0.381774 4.58824 1.14532 3.82469C1.90887 3.06115 2.81074 2.67937 3.85094 2.67937C4.82474 2.67937 5.63255 2.93942 6.27437 3.45952C6.91619 3.97962 7.34776 4.67124 7.56908 5.53438H12.4159V3.57571C12.4159 3.31013 12.5155 3.07775 12.7147 2.87856C12.9139 2.67937 13.1463 2.57978 13.4119 2.57978C13.6553 2.57978 13.86 2.67384 14.026 2.86196C14.192 3.05008 14.275 3.26587 14.275 3.50932L16.7649 1.11908C16.9419 0.942025 17.1688 0.825833 17.4454 0.770504C17.7221 0.715174 18.0042 0.753905 18.2919 0.886696L23.5372 3.40972C23.7364 3.52038 23.8747 3.6753 23.9522 3.87449C24.0296 4.07368 24.013 4.28393 23.9024 4.50525C23.7917 4.72657 23.6312 4.85936 23.421 4.90362C23.2107 4.94788 23.006 4.91469 22.8068 4.80403L17.6612 2.3142L14.4078 5.60077V7.32705L17.6612 10.7464L22.8068 8.22339C23.0282 8.11273 23.2384 8.08507 23.4376 8.1404C23.6368 8.19573 23.7917 8.33405 23.9024 8.55537C24.013 8.77669 24.0296 8.99801 23.9522 9.21932C23.8747 9.44064 23.7253 9.60663 23.504 9.71729L18.4247 12.1075C18.1149 12.2624 17.8161 12.3344 17.5284 12.3233C17.2407 12.3122 16.9862 12.1961 16.7649 11.9747L14.275 9.5845C14.275 9.89434 14.192 10.1267 14.026 10.2817C13.86 10.4366 13.6553 10.514 13.4119 10.514C13.1463 10.514 12.9139 10.4144 12.7147 10.2153C12.5155 10.0161 12.4159 9.78369 12.4159 9.5181V7.52624H7.50269C7.50269 7.79182 7.43076 8.06294 7.2869 8.33958C7.14304 8.61623 6.97152 8.84308 6.77234 9.02014L13.5779 22.1332H18.8231V25.2538H1.56029ZM3.85094 8.38938C4.3821 8.38938 4.82474 8.21233 5.17884 7.85822C5.53295 7.50411 5.71001 7.06147 5.71001 6.53031C5.71001 5.99915 5.53295 5.55651 5.17884 5.2024C4.82474 4.84829 4.3821 4.67124 3.85094 4.67124C3.31977 4.67124 2.87714 4.84829 2.52303 5.2024C2.16892 5.55651 1.99186 5.99915 1.99186 6.53031C1.99186 7.06147 2.16892 7.50411 2.52303 7.85822C2.87714 8.21233 3.31977 8.38938 3.85094 8.38938ZM7.96745 22.1332H11.3536L5.07925 9.94967C5.01286 9.99394 4.9022 10.0382 4.74727 10.0825C4.59235 10.1267 4.47063 10.1599 4.3821 10.1821L7.96745 22.1332Z" fill="white"/>
</svg>
